<svg width="50" height="50" viewBox="0 0 50 50" fill="none" xmlns="http://www.w3.org/2000/svg">
<g clip-path="url(#clip0_1_56)">
<path d="M3.12501 3.40208C-0.804158 7.48333 8.21054e-06 11.8188 8.21054e-06 24.9896C8.21054e-06 35.9271 -1.90833 46.8917 8.07917 49.4729C11.1979 50.275 38.8313 50.275 41.9458 49.4688C46.1042 48.3958 49.4875 45.0229 49.95 39.1417C50.0146 38.3208 50.0146 11.6729 49.9479 10.8354C49.4563 4.57083 45.6 0.960412 40.5188 0.229162C39.3542 0.0604117 39.1208 0.0104116 33.1458 -5.03659e-06C11.9521 0.0104116 7.30626 -0.933339 3.12501 3.40208Z" fill="url(#paint0_linear_1_56)"/>
<path d="M24.9959 6.53958C17.4313 6.53958 10.2479 5.86666 7.50419 12.9083C6.37085 15.8167 6.53544 19.5937 6.53544 25.0021C6.53544 29.7479 6.38335 34.2083 7.50419 37.0937C10.2417 44.1396 17.4834 43.4646 24.9917 43.4646C32.2354 43.4646 39.7042 44.2187 42.4813 37.0937C43.6167 34.1562 43.45 30.4354 43.45 25.0021C43.45 17.7896 43.8479 13.1333 40.35 9.63749C36.8084 6.09583 32.0188 6.53958 24.9875 6.53958H24.9959ZM23.3417 9.86666C39.1209 9.84166 41.1292 8.0875 40.0209 32.4562C39.6271 41.075 33.0646 40.1292 24.9979 40.1292C10.2896 40.1292 9.86669 39.7083 9.86669 24.9937C9.86669 10.1083 11.0334 9.87499 23.3417 9.86249V9.86666ZM34.85 12.9312C33.6271 12.9312 32.6354 13.9229 32.6354 15.1458C32.6354 16.3687 33.6271 17.3604 34.85 17.3604C36.0729 17.3604 37.0646 16.3687 37.0646 15.1458C37.0646 13.9229 36.0729 12.9312 34.85 12.9312ZM24.9959 15.5208C19.7604 15.5208 15.5167 19.7667 15.5167 25.0021C15.5167 30.2375 19.7604 34.4812 24.9959 34.4812C30.2313 34.4812 34.4729 30.2375 34.4729 25.0021C34.4729 19.7667 30.2313 15.5208 24.9959 15.5208ZM24.9959 18.8479C33.1313 18.8479 33.1417 31.1562 24.9959 31.1562C16.8625 31.1562 16.85 18.8479 24.9959 18.8479Z" fill="#16213E"/>
</g>
<defs>
<linearGradient id="paint0_linear_1_56" x1="3.22088" y1="46.8065" x2="49.6906" y2="6.58747" gradientUnits="userSpaceOnUse">
<stop stop-color="#4DD599"/>
<stop offset="0.0001" stop-color="#4DD599"/>
</linearGradient>
<clipPath id="clip0_1_56">
<rect width="50" height="50" fill="white"/>
</clipPath>
</defs>
</svg>
